<svg xmlns="http://www.w3.org/2000/svg" xmlns:svg="http://www.w3.org/2000/svg" id="svg8" width="12" height="20" version="1.1" viewBox="0 0 84.996 187.55"><metadata id="metadata5"/><g id="layer1" transform="translate(-88.064654,83.480986)"><g id="g998"><g id="g985"><g id="g29" transform="matrix(1,0,0,0.84324324,25.85451,-91.077309)"><rect style="stroke-width:.26458332" id="rect10" width="103.565" height="120.952" x="53.673" y="106.5" ry="15.875"/><rect style="stroke-width:.26458332" id="rect10-6" width="103.565" height="120.952" x="53.521" y="87.601" rx="0" ry="15.875"/></g><g id="g976" transform="translate(-1.2404946)"><rect style="fill:#fff;fill-opacity:1;stroke-width:.22505601" id="rect31" width="14.177" height="75.595" x="95.898" y="3.958" ry="8.399"/><rect style="fill:#fff;fill-opacity:1;stroke-width:.22505601" id="rect31-1" width="14.177" height="75.595" x="125.386" y="3.958" ry="8.399"/><rect style="fill:#fff;fill-opacity:1;stroke-width:.22505601" id="rect31-15" width="14.177" height="75.595" x="154.875" y="3.958" ry="8.399"/></g></g><g id="g885" transform="translate(5.0236737,-15.07102)"><rect style="fill:#000;fill-opacity:1;stroke-width:.42661962" id="rect4567" width="107.175" height="19.061" x="72.645" y="-39.743" ry="9.531" transform="matrix(0.99999715,-0.00238582,7.1343572e-4,0.99999975,0,0)"/><rect style="fill:#000;fill-opacity:1;stroke-width:.48332706" id="rect4569" width="26.193" height="32.108" x="113.131" y="-63.285" ry="16.054" transform="matrix(0.99999444,-0.00333468,5.104301e-4,0.99999987,0,0)"/></g></g></g></svg>