<svg xmlns="http://www.w3.org/2000/svg" xmlns:xlink="http://www.w3.org/1999/xlink" width="135" height="24" version="1.1" viewBox="0 0 135 24"><title>Group 5</title><desc>Created with Sketch.</desc><g id="Page-1" fill="none" fill-rule="evenodd" stroke="none" stroke-width="1"><g id="ENV-/-Data-/-Keysets" fill="#666668" transform="translate(-1256.000000, -27.000000)"><g id="Group-16" transform="translate(1256.000000, 27.000000)"><g id="Group-5"><polygon id="Fill-1" points="0 0 0 23.482 23.482 23.482 11.741 11.741"/><polygon id="Fill-2" points="11.779 0 11.741 11.741 23.482 0"/><polygon id="Fill-3" points="36.201 18.59 39.137 18.59 39.137 4.892 36.201 4.892"/><polygon id="Fill-4" points="46.911 4.892 42.49 11.413 47.942 18.59 44.479 18.59 39.137 11.567 43.54 4.892"/><path id="Fill-5" d="M57.3201347,13.6508614 L58.705036,10.7569675 L60.014124,13.6508614 L57.3201347,13.6508614 Z M58.6100986,4.89208633 L51.8561151,18.5899281 L54.8535852,18.5899281 L56.0679635,16.1590572 L61.2662951,16.1590572 L62.4804458,18.5899281 L65.5539568,18.5899281 L58.6100986,4.89208633 Z"/><path id="Fill-6" d="M75.761716,15.6707159 L74.3771158,15.6707159 L74.3771158,7.77379785 L75.761716,7.77379785 C77.9674005,7.77379785 79.7553882,9.54171766 79.7553882,11.7223691 C79.7553882,13.9030206 77.9674005,15.6707159 75.761716,15.6707159 M75.8050984,5.07914046 L74.3771158,5.07914046 L71.4243923,5.07914046 L71.4243923,18.3653733 L74.3771158,18.3653733 L75.8050984,18.3653733 C79.6054807,18.3653733 82.6860799,15.3911452 82.6860799,11.7223691 C82.6860799,8.05336856 79.6054807,5.07914046 75.8050984,5.07914046"/><polygon id="Fill-8" points="97.356 18.365 88.914 18.365 88.914 5.079 97.356 5.079 97.356 7.774 91.866 7.774 91.866 10.291 95.728 10.291 95.728 12.985 91.904 12.985 91.904 15.671 97.356 15.671"/><polygon id="Fill-10" points="104.699 18.365 104.699 4.892 113.217 12.171 113.217 5.079 116.018 5.079 116.018 18.478 107.539 11.18 107.539 18.365"/><path id="Fill-12" d="M126.655608,13.5747215 L128.037256,10.7677868 L129.343268,13.5747215 L126.655608,13.5747215 Z M127.942542,5.07914046 L121.204427,18.3653733 L124.194854,18.3653733 L125.406379,16.0075481 L130.592497,16.0075481 L131.803795,18.3653733 L134.870085,18.3653733 L127.942542,5.07914046 Z"/></g></g></g></g></svg>