<svg xmlns="http://www.w3.org/2000/svg" xmlns:svg="http://www.w3.org/2000/svg" id="svg10" width="10" height="10" version="1.1" viewBox="0 0 10 10"><metadata id="metadata16"/><title id="title2">Path</title><desc id="desc4">Created with Sketch.</desc><g id="Page-1" transform="matrix(0.53939985,0.53939985,-0.53939985,0.53939985,5.01398,-0.37462243)" style="fill:none;fill-rule:evenodd;stroke:none;stroke-width:1"><g id="1-ENV-/-Data-/-Keysets-Copy" transform="translate(-1354,-683)" style="fill:#2d2d2f"><g id="delete-2-alternate" transform="translate(1346,365)"><path id="Path" d="m 17.652312,318.34779 c -0.465488,-0.46372 -1.218491,-0.46372 -1.683979,0 l -2.972224,2.97118 -2.975966,-2.97118 c -0.46947,-0.44854 -1.2113849,-0.44005 -1.6704599,0.0191 -0.459075,0.45917 -0.4671572,1.20083 -0.018198,1.66989 l 2.9712889,2.97118 -2.9712889,2.97212 c -0.4489596,0.46905 -0.4408774,1.21071 0.018198,1.66988 0.459075,0.45917 1.2009899,0.46766 1.6704599,0.0191 l 2.971288,-2.97118 2.972224,2.97211 c 0.473359,0.42057 1.192771,0.39882 1.639837,-0.0496 0.447066,-0.4484 0.466432,-1.16763 0.04414,-1.63942 l -2.971289,-2.97211 2.971289,-2.97119 c 0.467987,-0.46542 0.470081,-1.22192 0.0047,-1.68993 z"/></g></g></g></svg>